# xmcd
#
# Track frame offsets:
#	150
#	11550
#	22600
#	34125
#	46932
#	57600
#	70295
#	81420
#	91030
#	101387
#	114295
#	124570
#	137047
#	147695
#	158537
#	168892
#	179990
#	191227
#	204077
#	215290
#	226520
#	238250
#	249970
#	262417
#	275185
#	287875
#
# Disc length: 3996 seconds
#
# Revision: 2
# Processed by: cddbd v1.5.1PL0 Copyright (c) Steve Scherf et al.
# Submitted via: audiograbber 1.81.03
#
DISCID=760f9a1a
DTITLE=Porter Wagoner - The Thin Man FromThe West Plains - Bear Family - BCD 15
DTITLE=499 (1993)
DYEAR=1993
DGENRE=Country
TTITLE0=Settin The Woods On Fire (1952)
TTITLE1=Headin' For A Weddin' (1952)
TTITLE2=Lovin' Letters (1993)
TTITLE3=I Can't Live With You (I Can't Live Without You) (1953)
TTITLE4=Bringing Home The Bacon (1953)
TTITLE5=An Angel Made Of Ice (1953)
TTITLE6=Takin' Chances (1953)
TTITLE7=All Roads Lead To Love (1953)
TTITLE8=That's It (1953)
TTITLE9=A Beggar For Your Love (1953)
TTITLE10=Trademark (1953)
TTITLE11=Don't Play That Song (1953)
TTITLE12=The Flame Of Love (1953)
TTITLE13=Dig That Crazy Moon (1953)
TTITLE14=Trinidad (1954)
TTITLE15=Bad News Travel Fast (1954)
TTITLE16=Get Out Of Here (1993)
TTITLE17=My Bonfire (1956)
TTITLE18=Town Crier (1993)
TTITLE19=Love At First Sight (1954)
TTITLE20=Be Glad You Ain't Me (1954)
TTITLE21=Our Shivaree (1993)
TTITLE22=Company's Comin' (1954)
TTITLE23=Tricks Of The Trade (1954)
TTITLE24=A Satisfied Mind (1955)
TTITLE25=A Good Time Was Had By All  (1956)
EXTD=Bear Family - BCD 15499 (1993]\nTitles include year of release.
EXTT0=
EXTT1=
EXTT2=
EXTT3=
EXTT4=
EXTT5=
EXTT6=
EXTT7=
EXTT8=
EXTT9=
EXTT10=
EXTT11=
EXTT12=
EXTT13=
EXTT14=
EXTT15=
EXTT16=
EXTT17=
EXTT18=
EXTT19=
EXTT20=
EXTT21=
EXTT22=
EXTT23=
EXTT24=
EXTT25=
PLAYORDER=
